
<svg id="Layer_1" data-name="Layer 1" xmlns="http://www.w3.org/2000/svg" viewBox="0 0 120.76 76"><defs><style>.cls-1{fill:#115598;}.cls-2{fill:#e9640b;}</style></defs><title>Smart Friqi</title><path class="cls-1" d="M120.51,30.19V50.25c0,3.16-2.16,5.72-4.82,5.72h-7.26V30.19Z"/><path class="cls-1" d="M12,73.5a3.61,3.61,0,0,1-1.53-1.23,3.24,3.24,0,0,1-.59-1.78h1.37a2.63,2.63,0,0,0,.83,1.66,3,3,0,0,0,2.16.71,3,3,0,0,0,2.08-.68,2.19,2.19,0,0,0,.77-1.71,2,2,0,0,0-.42-1.34,2.69,2.69,0,0,0-1.06-.76q-.63-.24-1.74-.54a15.08,15.08,0,0,1-2.05-.69,3.2,3.2,0,0,1-1.29-1A3.05,3.05,0,0,1,10,64.2a3.12,3.12,0,0,1,.52-1.78A3.48,3.48,0,0,1,12,61.19a5.11,5.11,0,0,1,2.16-.44,4.5,4.5,0,0,1,2.9.88,3.29,3.29,0,0,1,1.26,2.26h-1.4a2.34,2.34,0,0,0-.87-1.41,3,3,0,0,0-2-.62,3,3,0,0,0-1.94.62,2,2,0,0,0-.78,1.69,2,2,0,0,0,.43,1.31,2.72,2.72,0,0,0,1.06.76,15.08,15.08,0,0,0,1.73.55,15.49,15.49,0,0,1,2,.7,3.24,3.24,0,0,1,1.32,1,3.09,3.09,0,0,1,.53,1.89A3.36,3.36,0,0,1,18,72.14a3.48,3.48,0,0,1-1.42,1.31,4.8,4.8,0,0,1-2.26.5A5.24,5.24,0,0,1,12,73.5Z"/><path class="cls-1" d="M33.56,61.06V73.82h-1.3V63.63L27.71,73.82h-.94L22.22,63.67V73.82H20.93V61.06H22.3l4.93,11.06,4.94-11.06Z"/><path class="cls-1" d="M44,70.75H38.1L37,73.82H35.61l4.71-12.76h1.46l4.7,12.76H45.11Zm-.38-1.07-2.56-7-2.55,7Z"/><path class="cls-1" d="M55.43,73.82l-3.2-5.4H49.84v5.4H48.55V60.9h3.88a4.66,4.66,0,0,1,3.28,1,3.52,3.52,0,0,1,1.12,2.72A3.69,3.69,0,0,1,56,67a3.88,3.88,0,0,1-2.38,1.29L57,73.82Zm-5.59-6.45h2.61a3.17,3.17,0,0,0,2.28-.74,2.61,2.61,0,0,0,.77-2,2.58,2.58,0,0,0-.74-2A3.33,3.33,0,0,0,52.43,62H49.84Z"/><path class="cls-1" d="M67,60.9V62H63.38V73.82h-1.3V62h-3.6V60.9Z"/><path class="cls-2" d="M82.48,60.78v2.89H77.26V66h3.85v2.76H77.26v5.1H73.64v-13Z"/><path class="cls-2" d="M90.61,73.82,88,69h-.39v4.81H84v-13h5.71a6,6,0,0,1,2.67.55A3.8,3.8,0,0,1,94,62.83,4.12,4.12,0,0,1,94.58,65a3.75,3.75,0,0,1-2.86,3.77l2.94,5.09Zm-3-7.29h1.8a1.54,1.54,0,0,0,1.11-.35,1.34,1.34,0,0,0,.37-1,1.31,1.31,0,0,0-.38-1,1.55,1.55,0,0,0-1.1-.36h-1.8Z"/><path class="cls-2" d="M99.85,60.78v13H96.23v-13Z"/><path class="cls-2" d="M110.86,76l-1.45-2.16a7.24,7.24,0,0,1-1.24.11,6.78,6.78,0,0,1-3.36-.86,6.48,6.48,0,0,1-2.43-2.39,7,7,0,0,1,0-6.89,6.38,6.38,0,0,1,2.43-2.38,7.11,7.11,0,0,1,6.74,0A6.26,6.26,0,0,1,114,63.81a6.71,6.71,0,0,1,.89,3.45,6.79,6.79,0,0,1-.65,3,6.4,6.4,0,0,1-1.77,2.27L115.18,76ZM106,69.69a3.15,3.15,0,0,0,4.4,0,4.11,4.11,0,0,0,0-4.87,3.14,3.14,0,0,0-4.4,0,4.16,4.16,0,0,0,0,4.88Z"/><path class="cls-2" d="M120.12,60.78v13h-3.63v-13Z"/><path class="cls-1" d="M46.79,56.23V34.33a4,4,0,0,1,4-4h8.47V56.23Z"/><path class="cls-1" d="M10.23,56.26V19.14a4.29,4.29,0,0,1,4.29-4.29H25.31V56.26Z"/><path class="cls-1" d="M.13,9.65c0,.16-.06.32-.08.48L0,10.65a5.27,5.27,0,0,0,0,.56,5.43,5.43,0,0,0,0,.57v0A12,12,0,0,0,9,23.37a6.37,6.37,0,0,1,3.7-11.55H67.34L75.3,0H11.74A11.81,11.81,0,0,0,.13,9.65Z"/><path class="cls-1" d="M47.65,14.84a9.72,9.72,0,0,0-9.15,6.8,9.72,9.72,0,0,1,3.79-6.8H29.53V56.23H42.35V30.62a5.65,5.65,0,0,1,5.3-4H58l8-11.77Z"/><path class="cls-2" d="M97.87,52.68l-.82-.41h0l-9.81-5.17a11.65,11.65,0,1,1,3.73-2l8.73,4.61a20.64,20.64,0,0,0,2.94-4.55,21.47,21.47,0,0,0,2-9.35,21.16,21.16,0,0,0-2.8-10.87,19.81,19.81,0,0,0-7.6-7.49,22.38,22.38,0,0,0-21.24,0,19.9,19.9,0,0,0-7.66,7.49,21,21,0,0,0-2.83,10.87,20.94,20.94,0,0,0,2.83,10.86,20.11,20.11,0,0,0,7.66,7.52,21.31,21.31,0,0,0,5.86,2.21h26Z"/><circle class="cls-1" cx="83.71" cy="36.19" r="6.68"/><path class="cls-2" d="M114.47,27.15a6.37,6.37,0,1,1,6.36-6.37A6.37,6.37,0,0,1,114.47,27.15Zm0-9.79a3.42,3.42,0,1,0,3.42,3.42A3.43,3.43,0,0,0,114.47,17.36Z"/><rect class="cls-2" x="100.2" y="24.45" width="9.14" height="1.73" transform="translate(-1.39 43.94) rotate(-23.54)"/></svg>